{"accessors":[{"bufferView":0,"componentType":5123,"count":984,"max":[603],"min":[0],"type":"SCALAR"},{"bufferView":1,"componentType":5126,"count":604,"max":[0.02250000089406967,1.955121397972107,0.4529995620250702],"min":[-0.02250000089406967,4.612670068127045e-07,-0.4529995620250702],"type":"VEC3"},{"bufferView":2,"componentType":5126,"count":604,"max":[1.0,1.0,1.0],"min":[-1.0,-1.0,-1.0],"type":"VEC3"},{"bufferView":3,"componentType":5126,"count":604,"max":[0.2674259543418884,1.0,1.0,1.0],"min":[-1.0,-1.0,-0.9999999403953552,-1.0],"type":"VEC4"},{"bufferView":4,"componentType":5126,"count":604,"max":[0.9999999403953552,0.9810349941253662],"min":[0.0,0.7860152721405029],"type":"VEC2"},{"bufferView":5,"componentType":5123,"count":4956,"max":[1918],"min":[0],"type":"SCALAR"},{"bufferView":6,"componentType":5126,"count":1919,"max":[0.0010000001639127731,1.8991214036941528,0.7999977469444275],"min":[-0.049000002443790436,-0.0009999992325901985,-0.0],"type":"VEC3"},{"bufferView":7,"componentType":5126,"count":1919,"max":[1.0,1.0,1.0],"min":[-1.0,-1.0,-1.0],"type":"VEC3"},{"bufferView":8,"componentType":5126,"count":1919,"max":[1.0,1.0,0.9997583627700806,1.0],"min":[-1.0,-0.99997878074646,-1.0,-1.0],"type":"VEC4"},{"bufferView":9,"componentType":5126,"count":1919,"max":[0.9990234375,0.9990218281745911],"min":[0.0009765625,0.055095136165618896],"type":"VEC2"},{"bufferView":10,"componentType":5123,"count":2472,"max":[843],"min":[0],"type":"SCALAR"},{"bufferView":11,"componentType":5126,"count":844,"max":[0.05950000137090683,-0.2484825700521469,1.087046504020691],"min":[-0.05750000476837158,-0.37052902579307556,1.0149998664855957],"type":"VEC3"},{"bufferView":12,"componentType":5126,"count":844,"max":[1.0,0.9999111890792847,0.9999338984489441],"min":[-0.9999972581863403,-0.99989253282547,-0.9999584555625916],"type":"VEC3"},{"bufferView":13,"componentType":5126,"count":844,"max":[0.6250000596046448,1.0],"min":[0.0,0.24999994039535522],"type":"VEC2"},{"bufferView":14,"componentType":5123,"count":684,"max":[363],"min":[0],"type":"SCALAR"},{"bufferView":15,"componentType":5126,"count":364,"max":[-0.021913044154644012,1.7033779621124268,0.13309535384178162],"min":[-0.028086956590414047,0.2006220519542694,-0.13309535384178162],"type":"VEC3"},{"bufferView":16,"componentType":5126,"count":364,"max":[1.0,1.0,0.9994491934776306],"min":[-1.0,-1.0,-0.9994491934776306],"type":"VEC3"},{"bufferView":17,"componentType":5126,"count":364,"max":[0.0,0.5595109462738037],"min":[0.0,0.44048917293548584],"type":"VEC2"}],"asset":{"generator":"Verge3D for Blender v4.6.0","version":"2.0"},"bufferViews":[{"buffer":0,"byteLength":1968,"byteOffset":0,"target":34963},{"buffer":0,"byteLength":7248,"byteOffset":1968,"target":34962},{"buffer":0,"byteLength":7248,"byteOffset":9216,"target":34962},{"buffer":0,"byteLength":9664,"byteOffset":16464,"target":34962},{"buffer":0,"byteLength":4832,"byteOffset":26128,"target":34962},{"buffer":0,"byteLength":9912,"byteOffset":30960,"target":34963},{"buffer":0,"byteLength":23028,"byteOffset":40872,"target":34962},{"buffer":0,"byteLength":23028,"byteOffset":63900,"target":34962},{"buffer":0,"byteLength":30704,"byteOffset":86928,"target":34962},{"buffer":0,"byteLength":15352,"byteOffset":117632,"target":34962},{"buffer":0,"byteLength":4944,"byteOffset":132984,"target":34963},{"buffer":0,"byteLength":10128,"byteOffset":137928,"target":34962},{"buffer":0,"byteLength":10128,"byteOffset":148056,"target":34962},{"buffer":0,"byteLength":6752,"byteOffset":158184,"target":34962},{"buffer":0,"byteLength":1368,"byteOffset":164936,"target":34963},{"buffer":0,"byteLength":4368,"byteOffset":166304,"target":34962},{"buffer":0,"byteLength":4368,"byteOffset":170672,"target":34962},{"buffer":0,"byteLength":2912,"byteOffset":175040,"target":34962}],"buffers":[{"byteLength":177952,"uri":"DoorSmall. Closed.bin"}],"cameras":[{"extensions":{"S8S_v3d_camera":{"controls":"ORBIT","enablePan":true,"moveSpeed":1.0,"orbitMaxDistance":100.0,"orbitMaxPolarAngle":3.1415927410125732,"orbitMaxZoom":100.0,"orbitMinDistance":0.0,"orbitMinPolarAngle":0.0,"orbitMinZoom":0.009999999776482582,"orbitTarget":[0.0,0.0,-0.0],"rotateSpeed":1.0,"viewportFitInitialAspect":1.7777777777777777,"viewportFitType":"AUTO"}},"name":"Camera","perspective":{"aspectRatio":1.7777777777777777,"yfov":0.3748584866329444,"zfar":100.0,"znear":0.10000000149011612},"type":"perspective"}],"extensionsUsed":["S8S_v3d_texture","S8S_v3d_materials","S8S_v3d_camera","S8S_v3d_mesh","S8S_v3d_node","S8S_v3d_scene"],"images":[{"uri":"v3d_exported_image_d2_wood2._doorbase._bc.jpeg"},{"uri":"v3d_exported_image_d2_wood2._doorbase._roughmet.jpeg"},{"uri":"v3d_exported_image_wood2._doorbase.jpeg"},{"uri":"v3d_exported_image_d2_wood2._doorbase._roughmet.001.jpeg"},{"uri":"v3d_exported_image_h1_silver._handle._bc.jpeg"},{"uri":"v3d_exported_image_h1_silver._handle._roughmet.jpeg"},{"uri":"v3d_exported_image_h1_silver._handle._roughmet.001.jpeg"},{"uri":"v3d_exported_image_w3_matteglass._window._bc.png"},{"uri":"v3d_exported_image_matteglass._window.jpeg"},{"uri":"v3d_exported_image_matteglass._window.001.jpeg"}],"materials":[{"extensions":{"S8S_v3d_materials":{"gtaoVisible":true,"materialIndex":0,"nodeGraph":{"edges":[{"fromNode":0,"fromOutput":0,"toInput":0,"toNode":1},{"fromNode":2,"fromOutput":0,"toInput":0,"toNode":0},{"fromNode":3,"fromOutput":2,"toInput":1,"toNode":0},{"fromNode":3,"fromOutput":1,"toInput":2,"toNode":0},{"fromNode":4,"fromOutput":0,"toInput":0,"toNode":3},{"fromNode":5,"fromOutput":0,"toInput":5,"toNode":0},{"fromNode":6,"fromOutput":0,"toInput":1,"toNode":5},{"fromNode":7,"fromOutput":0,"toInput":11,"toNode":0},{"fromNode":8,"fromOutput":1,"toInput":0,"toNode":7}],"nodes":[{"inputs":[[0.800000011920929,0.800000011920929,0.800000011920929,1.0],0.0,0.5,1.4500000476837158,1.0,[0.0,0.0,0.0],0.0,[1.0,0.20000000298023224,0.10000000149011612],0.05000000074505806,1.399999976158142,0.0,0.5,[1.0,1.0,1.0,1.0],0.0,0.0,[0.0,0.0,0.0],0.0,0.0,0.0,1.5,[1.0,1.0,1.0,1.0],[0.0,0.0,0.0],0.0,0.5,[1.0,1.0,1.0,1.0],[1.0,1.0,1.0,1.0],0.0],"is_active_output":false,"name":"Принципиальный BSDF","outputs":[[0,0,0,0]],"type":"BSDF_PRINCIPLED_BL"},{"inputs":[[0,0,0,0],[0,0,0,0],[0.0,0.0,0.0],0.0],"is_active_output":true,"name":"Вывод материала","outputs":[],"type":"OUTPUT_MATERIAL_BL"},{"alphaMode":"CHANNEL_PACKED","inputs":[[0.0,0.0,0.0]],"is_active_output":false,"name":"Изображение-текстура","outputs":[[0.800000011920929,0.800000011920929,0.800000011920929,1.0],0.0],"projection":"FLAT","projectionBlend":0.0,"texture":0,"type":"TEX_IMAGE_BL"},{"inputs":[[0.800000011920929,0.800000011920929,0.800000011920929,1.0]],"is_active_output":false,"mode":"RGB","name":"Разделить цвет","outputs":[0.0,0.0,0.0],"type":"SEPARATE_COLOR_BL"},{"alphaMode":"STRAIGHT","inputs":[[0.0,0.0,0.0]],"is_active_output":false,"name":"Изображение-текстура.001","outputs":[[0.800000011920929,0.800000011920929,0.800000011920929,1.0],0.0],"projection":"FLAT","projectionBlend":0.0,"texture":1,"type":"TEX_IMAGE_BL"},{"inputs":[0.5,[0.5,0.5,1.0,1.0]],"is_active_output":false,"name":"Карта нормалей","outputs":[[0.0,0.0,0.0]],"type":"NORMAL_MAP_BL","uvLayer":"UVMap"},{"alphaMode":"STRAIGHT","inputs":[[0.0,0.0,0.0]],"is_active_output":false,"name":"Изображение-текстура.002","outputs":[[0.800000011920929,0.800000011920929,0.800000011920929,1.0],0.0],"projection":"FLAT","projectionBlend":0.0,"texture":2,"type":"TEX_IMAGE_BL"},{"inputs":[0.5,0.5,0.5],"is_active_output":false,"name":"Математика","operation":"MULTIPLY","outputs":[0.0],"type":"MATH_BL","useClamp":false},{"alphaMode":"CHANNEL_PACKED","inputs":[[0.0,0.0,0.0]],"is_active_output":false,"name":"Изображение-текстура.003","outputs":[[0.800000011920929,0.800000011920929,0.800000011920929,1.0],0.0],"projection":"FLAT","projectionBlend":0.0,"texture":3,"type":"TEX_IMAGE_BL"}]},"useCastShadows":true}},"name":"M1_DoorBase.001"},{"extensions":{"S8S_v3d_materials":{"gtaoVisible":true,"materialIndex":0,"nodeGraph":{"edges":[{"fromNode":0,"fromOutput":0,"toInput":0,"toNode":1},{"fromNode":2,"fromOutput":0,"toInput":0,"toNode":0},{"fromNode":3,"fromOutput":2,"toInput":1,"toNode":0},{"fromNode":3,"fromOutput":1,"toInput":2,"toNode":0},{"fromNode":4,"fromOutput":0,"toInput":0,"toNode":3},{"fromNode":5,"fromOutput":0,"toInput":11,"toNode":0},{"fromNode":6,"fromOutput":1,"toInput":0,"toNode":5}],"nodes":[{"inputs":[[0.800000011920929,0.800000011920929,0.800000011920929,1.0],0.0,0.5,1.4500000476837158,1.0,[0.0,0.0,0.0],0.0,[1.0,0.20000000298023224,0.10000000149011612],0.05000000074505806,1.399999976158142,0.0,0.5,[1.0,1.0,1.0,1.0],0.0,0.0,[0.0,0.0,0.0],0.0,1.0,0.029999999329447746,1.5,[1.0,1.0,1.0,1.0],[0.0,0.0,0.0],0.0,0.5,[1.0,1.0,1.0,1.0],[1.0,1.0,1.0,1.0],0.0],"is_active_output":false,"name":"Принципиальный BSDF","outputs":[[0,0,0,0]],"type":"BSDF_PRINCIPLED_BL"},{"inputs":[[0,0,0,0],[0,0,0,0],[0.0,0.0,0.0],0.0],"is_active_output":true,"name":"Вывод материала","outputs":[],"type":"OUTPUT_MATERIAL_BL"},{"alphaMode":"CHANNEL_PACKED","inputs":[[0.0,0.0,0.0]],"is_active_output":false,"name":"Изображение-текстура","outputs":[[0.800000011920929,0.800000011920929,0.800000011920929,1.0],0.0],"projection":"FLAT","projectionBlend":0.0,"texture":4,"type":"TEX_IMAGE_BL"},{"inputs":[[0.800000011920929,0.800000011920929,0.800000011920929,1.0]],"is_active_output":false,"mode":"RGB","name":"Разделить цвет","outputs":[0.0,0.0,0.0],"type":"SEPARATE_COLOR_BL"},{"alphaMode":"STRAIGHT","inputs":[[0.0,0.0,0.0]],"is_active_output":false,"name":"Изображение-текстура.001","outputs":[[0.800000011920929,0.800000011920929,0.800000011920929,1.0],0.0],"projection":"FLAT","projectionBlend":0.0,"texture":5,"type":"TEX_IMAGE_BL"},{"inputs":[0.5,0.5,0.5],"is_active_output":false,"name":"Математика","operation":"MULTIPLY","outputs":[0.0],"type":"MATH_BL","useClamp":false},{"alphaMode":"CHANNEL_PACKED","inputs":[[0.0,0.0,0.0]],"is_active_output":false,"name":"Изображение-текстура.002","outputs":[[0.800000011920929,0.800000011920929,0.800000011920929,1.0],0.0],"projection":"FLAT","projectionBlend":0.0,"texture":6,"type":"TEX_IMAGE_BL"}]},"useCastShadows":true}},"name":"M2_Hanlde.001"},{"alphaMode":"BLEND","doubleSided":true,"extensions":{"S8S_v3d_materials":{"depthWrite":false,"gtaoVisible":false,"materialIndex":0,"nodeGraph":{"edges":[{"fromNode":0,"fromOutput":0,"toInput":0,"toNode":1},{"fromNode":2,"fromOutput":0,"toInput":0,"toNode":0},{"fromNode":2,"fromOutput":1,"toInput":4,"toNode":0},{"fromNode":3,"fromOutput":2,"toInput":1,"toNode":0},{"fromNode":3,"fromOutput":1,"toInput":2,"toNode":0},{"fromNode":4,"fromOutput":0,"toInput":0,"toNode":3},{"fromNode":5,"fromOutput":0,"toInput":11,"toNode":0},{"fromNode":6,"fromOutput":1,"toInput":0,"toNode":5}],"nodes":[{"inputs":[[0.800000011920929,0.800000011920929,0.800000011920929,1.0],0.0,0.5,1.5499999523162842,1.0,[0.0,0.0,0.0],0.0,[1.0,0.20000000298023224,0.10000000149011612],0.05000000074505806,1.399999976158142,0.0,0.5,[1.0,1.0,1.0,1.0],0.0,0.0,[0.0,0.0,0.0],0.0,1.0,0.05000000074505806,1.5,[1.0,1.0,1.0,1.0],[0.0,0.0,0.0],0.0,0.5,[1.0,1.0,1.0,1.0],[1.0,1.0,1.0,1.0],0.0],"is_active_output":false,"name":"Принципиальный BSDF","outputs":[[0,0,0,0]],"type":"BSDF_PRINCIPLED_BL"},{"inputs":[[0,0,0,0],[0,0,0,0],[0.0,0.0,0.0],0.0],"is_active_output":true,"name":"Вывод материала","outputs":[],"type":"OUTPUT_MATERIAL_BL"},{"alphaMode":"CHANNEL_PACKED","inputs":[[0.0,0.0,0.0]],"is_active_output":false,"name":"Изображение-текстура","outputs":[[0.800000011920929,0.800000011920929,0.800000011920929,1.0],0.0],"projection":"FLAT","projectionBlend":0.0,"texture":7,"type":"TEX_IMAGE_BL"},{"inputs":[[0.800000011920929,0.800000011920929,0.800000011920929,1.0]],"is_active_output":false,"mode":"RGB","name":"Разделить цвет","outputs":[0.0,0.0,0.0],"type":"SEPARATE_COLOR_BL"},{"alphaMode":"STRAIGHT","inputs":[[0.0,0.0,0.0]],"is_active_output":false,"name":"Изображение-текстура.001","outputs":[[0.800000011920929,0.800000011920929,0.800000011920929,1.0],0.0],"projection":"FLAT","projectionBlend":0.0,"texture":8,"type":"TEX_IMAGE_BL"},{"inputs":[0.5,0.5,0.5],"is_active_output":false,"name":"Математика","operation":"MULTIPLY","outputs":[0.0],"type":"MATH_BL","useClamp":false},{"alphaMode":"CHANNEL_PACKED","inputs":[[0.0,0.0,0.0]],"is_active_output":false,"name":"Изображение-текстура.002","outputs":[[0.800000011920929,0.800000011920929,0.800000011920929,1.0],0.0],"projection":"FLAT","projectionBlend":0.0,"texture":9,"type":"TEX_IMAGE_BL"}]},"renderSide":"DOUBLE","useCastShadows":true}},"name":"M3_Window.001"},{"extensions":{"S8S_v3d_materials":{"gtaoVisible":true,"materialIndex":0,"nodeGraph":{"edges":[{"fromNode":1,"fromOutput":0,"toInput":0,"toNode":0}],"nodes":[{"inputs":[[0,0,0,0],[0,0,0,0]],"is_active_output":true,"name":"World Output","outputs":[],"type":"OUTPUT_WORLD_BL"},{"inputs":[[0.05087608844041824,0.05087608844041824,0.05087608844041824,1.0],1.0],"is_active_output":false,"name":"Background","outputs":[[0,0,0,0]],"type":"BACKGROUND_BL"}]},"useCastShadows":true}},"name":"Verge3D_Environment_World"}],"meshes":[{"extensions":{"S8S_v3d_mesh":{"colorLayers":{},"uvLayers":{"UVMap":"TEXCOORD_0"}}},"name":"Box","primitives":[{"attributes":{"NORMAL":2,"POSITION":1,"TANGENT":3,"TEXCOORD_0":4},"indices":0,"material":0,"mode":4}]},{"extensions":{"S8S_v3d_mesh":{"colorLayers":{},"uvLayers":{"UVMap":"TEXCOORD_0"}}},"name":"Door","primitives":[{"attributes":{"NORMAL":7,"POSITION":6,"TANGENT":8,"TEXCOORD_0":9},"indices":5,"material":0,"mode":4}]},{"extensions":{"S8S_v3d_mesh":{"colorLayers":{},"uvLayers":{"UVMap":"TEXCOORD_0"}}},"name":"Handle1","primitives":[{"attributes":{"NORMAL":12,"POSITION":11,"TEXCOORD_0":13},"indices":10,"material":1,"mode":4}]},{"extensions":{"S8S_v3d_mesh":{"colorLayers":{},"uvLayers":{"UVMap":"TEXCOORD_0"}}},"name":"Window","primitives":[{"attributes":{"NORMAL":16,"POSITION":15,"TEXCOORD_0":17},"indices":14,"material":2,"mode":4}]}],"nodes":[{"children":[3],"extensions":{"S8S_v3d_node":{"frustumCulling":true,"groupNames":[],"hidden":false,"hidpiCompositing":false,"objectColor":[1.0,1.0,1.0,1.0],"objectIndex":0,"renderOrder":0,"useShadows":true}},"mesh":1,"name":"Door","translation":[0.024000000208616257,0.0059999991208314896,-0.39999887347221375]},{"extensions":{"S8S_v3d_node":{"frustumCulling":true,"groupNames":[],"hidden":false,"hidpiCompositing":false,"objectColor":[1.0,1.0,1.0,1.0],"objectIndex":0,"renderOrder":0,"useShadows":true}},"mesh":2,"name":"Handle1","rotation":[-0.70710688829422,-0.0,0.0,0.7071066498756409],"scale":[1.0,1.0000001192092896,1.0000001192092896]},{"camera":0,"extensions":{"S8S_v3d_node":{"frustumCulling":true,"groupNames":["Collection"],"hidden":false,"hidpiCompositing":false,"objectColor":[0.0,0.0,0.0,0.0],"objectIndex":0,"renderOrder":0}},"name":"Camera","rotation":[1.2101615709525504e-08,0.70710688829422,-1.2101618374060763e-08,0.7071066498756409],"scale":[1.0000001192092896,0.9999999403953552,0.9999999403953552],"translation":[7.0,2.277616024017334,-9.235163815901615e-07]},{"extensions":{"S8S_v3d_node":{"frustumCulling":true,"groupNames":[],"hidden":false,"hidpiCompositing":false,"objectColor":[1.0,1.0,1.0,1.0],"objectIndex":0,"renderOrder":0,"useShadows":true}},"mesh":3,"name":"Window","translation":[0.0010000001639127731,-0.0029999990947544575,0.39999887347221375]},{"extensions":{"S8S_v3d_node":{"frustumCulling":true,"groupNames":[],"hidden":false,"hidpiCompositing":false,"objectColor":[1.0,1.0,1.0,1.0],"objectIndex":0,"renderOrder":0,"useShadows":true}},"mesh":0,"name":"Box"}],"samplers":[{}],"scene":0,"scenes":[{"extensions":{"S8S_v3d_scene":{"aaMethod":"AUTO","iblEnvironmentMode":"PMREM","physicallyCorrectLights":true,"pmremMaxTileSize":512,"shadowMap":{"esmDistanceScale":1.0,"renderReverseSided":false,"renderSingleSided":true,"type":"PCFPOISSON"},"toneMapping":{"look":"NONE","type":"agxBlender"},"worldMaterial":3}},"extras":{"animFrameRate":24,"coordSystem":"Z_UP_RIGHT"},"name":"Scene","nodes":[0,4,1,2]}],"textures":[{"extensions":{"S8S_v3d_texture":{"colorSpace":"srgb"}},"name":"D2_wood2. DoorBase. BC","sampler":0,"source":0},{"extensions":{"S8S_v3d_texture":{"colorSpace":"non-color"}},"name":"D2_wood2. DoorBase. RoughMet","sampler":0,"source":1},{"extensions":{"S8S_v3d_texture":{"colorSpace":"non-color"}},"name":"wood2. DoorBase","sampler":0,"source":2},{"extensions":{"S8S_v3d_texture":{"colorSpace":"srgb"}},"name":"D2_wood2. DoorBase. RoughMet.001","sampler":0,"source":3},{"extensions":{"S8S_v3d_texture":{"colorSpace":"srgb"}},"name":"H1_Silver. Handle. BC","sampler":0,"source":4},{"extensions":{"S8S_v3d_texture":{"colorSpace":"non-color"}},"name":"H1_Silver. Handle. RoughMet","sampler":0,"source":5},{"extensions":{"S8S_v3d_texture":{"colorSpace":"srgb"}},"name":"H1_Silver. Handle. RoughMet.001","sampler":0,"source":6},{"extensions":{"S8S_v3d_texture":{"colorSpace":"srgb"}},"name":"W3_MatteGlass. Window. BC","sampler":0,"source":7},{"extensions":{"S8S_v3d_texture":{"colorSpace":"non-color"}},"name":"MatteGlass. Window","sampler":0,"source":8},{"extensions":{"S8S_v3d_texture":{"colorSpace":"srgb"}},"name":"MatteGlass. Window.001","sampler":0,"source":9}]}
